<mxfile host="app.diagrams.net" modified="2024-07-31T23:11:52.148Z" agent="Mozilla/5.0 (Windows NT 10.0; Win64; x64) AppleWebKit/537.36 (KHTML, like Gecko) Chrome/127.0.0.0 Safari/537.36" etag="9ElnTEj6UQKZ01X4Pemt" version="24.5.4" type="device">
  <diagram id="C5RBs43oDa-KdzZeNtuy" name="Page-1">
    <mxGraphModel dx="1863" dy="580" grid="1" gridSize="10" guides="1" tooltips="1" connect="1" arrows="1" fold="1" page="1" pageScale="1" pageWidth="827" pageHeight="1169" math="0" shadow="0">
      <root>
        <mxCell id="WIyWlLk6GJQsqaUBKTNV-0" />
        <mxCell id="WIyWlLk6GJQsqaUBKTNV-1" parent="WIyWlLk6GJQsqaUBKTNV-0" />
        <mxCell id="lFPa3qKLJU9Ycl3_Rsbh-1" value="Subject" style="swimlane;fontStyle=0;align=center;verticalAlign=top;childLayout=stackLayout;horizontal=1;startSize=30;horizontalStack=0;resizeParent=1;resizeParentMax=0;resizeLast=0;collapsible=1;marginBottom=0;whiteSpace=wrap;html=1;" vertex="1" parent="WIyWlLk6GJQsqaUBKTNV-1">
          <mxGeometry x="-480" y="270" width="230" height="210" as="geometry" />
        </mxCell>
        <mxCell id="lFPa3qKLJU9Ycl3_Rsbh-2" value="ID&amp;nbsp;&lt;div&gt;Name&lt;/div&gt;&lt;div style=&quot;font-size: 14px;&quot;&gt;Exam&lt;/div&gt;" style="text;strokeColor=none;fillColor=none;align=left;verticalAlign=top;spacingLeft=4;spacingRight=4;overflow=hidden;rotatable=0;points=[[0,0.5],[1,0.5]];portConstraint=eastwest;whiteSpace=wrap;html=1;fontStyle=0" vertex="1" parent="lFPa3qKLJU9Ycl3_Rsbh-1">
          <mxGeometry y="30" width="230" height="70" as="geometry" />
        </mxCell>
        <mxCell id="lFPa3qKLJU9Ycl3_Rsbh-3" value="" style="line;strokeWidth=1;fillColor=none;align=left;verticalAlign=middle;spacingTop=-1;spacingLeft=3;spacingRight=3;rotatable=0;labelPosition=right;points=[];portConstraint=eastwest;strokeColor=inherit;fontStyle=0" vertex="1" parent="lFPa3qKLJU9Ycl3_Rsbh-1">
          <mxGeometry y="100" width="230" height="8" as="geometry" />
        </mxCell>
        <mxCell id="lFPa3qKLJU9Ycl3_Rsbh-4" value="+ &lt;font style=&quot;font-size: 13px;&quot;&gt;subject (ID , Name):&amp;nbsp;&lt;/font&gt;&lt;div&gt;&lt;font style=&quot;&quot;&gt;&lt;span style=&quot;font-size: 13px;&quot;&gt;+InitializeExam (time , numberofquestion ,&amp;nbsp;&lt;/span&gt;&lt;/font&gt;&lt;span style=&quot;background-color: initial; font-size: 13px;&quot;&gt;choice&lt;/span&gt;&lt;span style=&quot;font-size: 13px; background-color: initial;&quot;&gt;)&lt;/span&gt;&lt;/div&gt;&lt;div&gt;&lt;span style=&quot;font-size: 13px; background-color: initial;&quot;&gt;&amp;nbsp;+&lt;/span&gt;&lt;span style=&quot;background-color: initial; font-size: 13px;&quot;&gt;AddExam ()&lt;/span&gt;&lt;/div&gt;&lt;div&gt;&lt;span style=&quot;background-color: initial; font-size: 13px;&quot;&gt;+&lt;/span&gt;&lt;span style=&quot;background-color: initial; font-size: 13px;&quot;&gt;ViewExam()&lt;/span&gt;&lt;/div&gt;" style="text;strokeColor=none;fillColor=none;align=left;verticalAlign=top;spacingLeft=4;spacingRight=4;overflow=hidden;rotatable=0;points=[[0,0.5],[1,0.5]];portConstraint=eastwest;whiteSpace=wrap;html=1;fontStyle=0" vertex="1" parent="lFPa3qKLJU9Ycl3_Rsbh-1">
          <mxGeometry y="108" width="230" height="102" as="geometry" />
        </mxCell>
        <mxCell id="lFPa3qKLJU9Ycl3_Rsbh-5" value="Exam" style="swimlane;fontStyle=0;align=center;verticalAlign=top;childLayout=stackLayout;horizontal=1;startSize=30;horizontalStack=0;resizeParent=1;resizeParentMax=0;resizeLast=0;collapsible=1;marginBottom=0;whiteSpace=wrap;html=1;" vertex="1" parent="WIyWlLk6GJQsqaUBKTNV-1">
          <mxGeometry x="-60" y="270" width="230" height="230" as="geometry" />
        </mxCell>
        <mxCell id="lFPa3qKLJU9Ycl3_Rsbh-6" value="Time&lt;div&gt;Number_Of_Questions&lt;br&gt;&lt;/div&gt;&lt;div&gt;Marks&lt;br&gt;&lt;/div&gt;&lt;div&gt;Subject&lt;br&gt;&lt;/div&gt;&lt;div&gt;Questions&lt;br&gt;&lt;/div&gt;" style="text;strokeColor=none;fillColor=none;align=left;verticalAlign=top;spacingLeft=4;spacingRight=4;overflow=hidden;rotatable=0;points=[[0,0.5],[1,0.5]];portConstraint=eastwest;whiteSpace=wrap;html=1;fontStyle=0" vertex="1" parent="lFPa3qKLJU9Ycl3_Rsbh-5">
          <mxGeometry y="30" width="230" height="120" as="geometry" />
        </mxCell>
        <mxCell id="lFPa3qKLJU9Ycl3_Rsbh-7" value="" style="line;strokeWidth=1;fillColor=none;align=left;verticalAlign=middle;spacingTop=-1;spacingLeft=3;spacingRight=3;rotatable=0;labelPosition=right;points=[];portConstraint=eastwest;strokeColor=inherit;fontStyle=0" vertex="1" parent="lFPa3qKLJU9Ycl3_Rsbh-5">
          <mxGeometry y="150" width="230" height="8" as="geometry" />
        </mxCell>
        <mxCell id="lFPa3qKLJU9Ycl3_Rsbh-8" value="+ &lt;font style=&quot;font-size: 13px;&quot;&gt;Exam (time , numberofquestion ,&amp;nbsp;subject,&amp;nbsp;questions &amp;nbsp;):&amp;nbsp;&lt;/font&gt;&lt;div&gt;&lt;font style=&quot;&quot;&gt;&lt;span style=&quot;font-size: 13px;&quot;&gt;+TrueOrFalse&amp;nbsp;()&lt;/span&gt;&lt;/font&gt;&lt;/div&gt;&lt;div&gt;&lt;span style=&quot;font-size: 13px; background-color: initial;&quot;&gt;&amp;nbsp;+&lt;/span&gt;&lt;span style=&quot;background-color: initial;&quot;&gt;&lt;span style=&quot;font-size: 13px;&quot;&gt;Mcq&amp;nbsp;()&lt;/span&gt;&lt;/span&gt;&lt;/div&gt;&lt;div&gt;&lt;br&gt;&lt;/div&gt;" style="text;strokeColor=none;fillColor=none;align=left;verticalAlign=top;spacingLeft=4;spacingRight=4;overflow=hidden;rotatable=0;points=[[0,0.5],[1,0.5]];portConstraint=eastwest;whiteSpace=wrap;html=1;fontStyle=0" vertex="1" parent="lFPa3qKLJU9Ycl3_Rsbh-5">
          <mxGeometry y="158" width="230" height="72" as="geometry" />
        </mxCell>
        <mxCell id="lFPa3qKLJU9Ycl3_Rsbh-9" value="Answer" style="swimlane;fontStyle=0;align=center;verticalAlign=top;childLayout=stackLayout;horizontal=1;startSize=30;horizontalStack=0;resizeParent=1;resizeParentMax=0;resizeLast=0;collapsible=1;marginBottom=0;whiteSpace=wrap;html=1;" vertex="1" parent="WIyWlLk6GJQsqaUBKTNV-1">
          <mxGeometry x="310" y="270" width="230" height="170" as="geometry" />
        </mxCell>
        <mxCell id="lFPa3qKLJU9Ycl3_Rsbh-10" value="&lt;div&gt;ID&lt;/div&gt;&lt;div&gt;text&lt;/div&gt;" style="text;strokeColor=none;fillColor=none;align=left;verticalAlign=top;spacingLeft=4;spacingRight=4;overflow=hidden;rotatable=0;points=[[0,0.5],[1,0.5]];portConstraint=eastwest;whiteSpace=wrap;html=1;fontStyle=0" vertex="1" parent="lFPa3qKLJU9Ycl3_Rsbh-9">
          <mxGeometry y="30" width="230" height="60" as="geometry" />
        </mxCell>
        <mxCell id="lFPa3qKLJU9Ycl3_Rsbh-11" value="" style="line;strokeWidth=1;fillColor=none;align=left;verticalAlign=middle;spacingTop=-1;spacingLeft=3;spacingRight=3;rotatable=0;labelPosition=right;points=[];portConstraint=eastwest;strokeColor=inherit;fontStyle=0" vertex="1" parent="lFPa3qKLJU9Ycl3_Rsbh-9">
          <mxGeometry y="90" width="230" height="8" as="geometry" />
        </mxCell>
        <mxCell id="lFPa3qKLJU9Ycl3_Rsbh-12" value="+ &lt;font style=&quot;font-size: 13px;&quot;&gt;Answers (id , text )&lt;/font&gt;&lt;div&gt;&lt;br&gt;&lt;/div&gt;" style="text;strokeColor=none;fillColor=none;align=left;verticalAlign=top;spacingLeft=4;spacingRight=4;overflow=hidden;rotatable=0;points=[[0,0.5],[1,0.5]];portConstraint=eastwest;whiteSpace=wrap;html=1;fontStyle=0" vertex="1" parent="lFPa3qKLJU9Ycl3_Rsbh-9">
          <mxGeometry y="98" width="230" height="72" as="geometry" />
        </mxCell>
        <mxCell id="lFPa3qKLJU9Ycl3_Rsbh-38" style="edgeStyle=orthogonalEdgeStyle;rounded=0;orthogonalLoop=1;jettySize=auto;html=1;entryX=0;entryY=0.5;entryDx=0;entryDy=0;" edge="1" parent="WIyWlLk6GJQsqaUBKTNV-1" source="lFPa3qKLJU9Ycl3_Rsbh-18" target="lFPa3qKLJU9Ycl3_Rsbh-32">
          <mxGeometry relative="1" as="geometry" />
        </mxCell>
        <mxCell id="lFPa3qKLJU9Ycl3_Rsbh-18" value="true_or_false" style="swimlane;fontStyle=0;align=center;verticalAlign=top;childLayout=stackLayout;horizontal=1;startSize=30;horizontalStack=0;resizeParent=1;resizeParentMax=0;resizeLast=0;collapsible=1;marginBottom=0;whiteSpace=wrap;html=1;" vertex="1" parent="WIyWlLk6GJQsqaUBKTNV-1">
          <mxGeometry x="-490" y="670" width="230" height="110" as="geometry" />
        </mxCell>
        <mxCell id="lFPa3qKLJU9Ycl3_Rsbh-20" value="" style="line;strokeWidth=1;fillColor=none;align=left;verticalAlign=middle;spacingTop=-1;spacingLeft=3;spacingRight=3;rotatable=0;labelPosition=right;points=[];portConstraint=eastwest;strokeColor=inherit;fontStyle=0" vertex="1" parent="lFPa3qKLJU9Ycl3_Rsbh-18">
          <mxGeometry y="30" width="230" height="8" as="geometry" />
        </mxCell>
        <mxCell id="lFPa3qKLJU9Ycl3_Rsbh-21" value="&lt;div&gt;+&amp;nbsp;&lt;font style=&quot;font-size: 13px;&quot;&gt;true_or_false (header , body , mark , answer )&lt;/font&gt;&lt;div&gt;&lt;br&gt;&lt;/div&gt;&lt;/div&gt;" style="text;strokeColor=none;fillColor=none;align=left;verticalAlign=top;spacingLeft=4;spacingRight=4;overflow=hidden;rotatable=0;points=[[0,0.5],[1,0.5]];portConstraint=eastwest;whiteSpace=wrap;html=1;fontStyle=0" vertex="1" parent="lFPa3qKLJU9Ycl3_Rsbh-18">
          <mxGeometry y="38" width="230" height="72" as="geometry" />
        </mxCell>
        <mxCell id="lFPa3qKLJU9Ycl3_Rsbh-22" value="Mcq" style="swimlane;fontStyle=0;align=center;verticalAlign=top;childLayout=stackLayout;horizontal=1;startSize=30;horizontalStack=0;resizeParent=1;resizeParentMax=0;resizeLast=0;collapsible=1;marginBottom=0;whiteSpace=wrap;html=1;" vertex="1" parent="WIyWlLk6GJQsqaUBKTNV-1">
          <mxGeometry x="-50" y="673" width="230" height="110" as="geometry" />
        </mxCell>
        <mxCell id="lFPa3qKLJU9Ycl3_Rsbh-24" value="" style="line;strokeWidth=1;fillColor=none;align=left;verticalAlign=middle;spacingTop=-1;spacingLeft=3;spacingRight=3;rotatable=0;labelPosition=right;points=[];portConstraint=eastwest;strokeColor=inherit;fontStyle=0" vertex="1" parent="lFPa3qKLJU9Ycl3_Rsbh-22">
          <mxGeometry y="30" width="230" height="8" as="geometry" />
        </mxCell>
        <mxCell id="lFPa3qKLJU9Ycl3_Rsbh-25" value="&lt;div&gt;+&amp;nbsp;&lt;font style=&quot;font-size: 13px;&quot;&gt;Mcq (header , body , mark , answer )&lt;/font&gt;&lt;div&gt;&lt;br&gt;&lt;/div&gt;&lt;/div&gt;" style="text;strokeColor=none;fillColor=none;align=left;verticalAlign=top;spacingLeft=4;spacingRight=4;overflow=hidden;rotatable=0;points=[[0,0.5],[1,0.5]];portConstraint=eastwest;whiteSpace=wrap;html=1;fontStyle=0" vertex="1" parent="lFPa3qKLJU9Ycl3_Rsbh-22">
          <mxGeometry y="38" width="230" height="72" as="geometry" />
        </mxCell>
        <mxCell id="lFPa3qKLJU9Ycl3_Rsbh-29" value="Question" style="swimlane;fontStyle=0;align=center;verticalAlign=top;childLayout=stackLayout;horizontal=1;startSize=30;horizontalStack=0;resizeParent=1;resizeParentMax=0;resizeLast=0;collapsible=1;marginBottom=0;whiteSpace=wrap;html=1;" vertex="1" parent="WIyWlLk6GJQsqaUBKTNV-1">
          <mxGeometry x="310" y="670" width="230" height="190" as="geometry" />
        </mxCell>
        <mxCell id="lFPa3qKLJU9Ycl3_Rsbh-30" value="+Header&lt;div&gt;+Body&lt;/div&gt;&lt;div&gt;+mark&lt;/div&gt;&lt;div&gt;+Answers&lt;/div&gt;" style="text;strokeColor=none;fillColor=none;align=left;verticalAlign=top;spacingLeft=4;spacingRight=4;overflow=hidden;rotatable=0;points=[[0,0.5],[1,0.5]];portConstraint=eastwest;whiteSpace=wrap;html=1;fontStyle=0" vertex="1" parent="lFPa3qKLJU9Ycl3_Rsbh-29">
          <mxGeometry y="30" width="230" height="90" as="geometry" />
        </mxCell>
        <mxCell id="lFPa3qKLJU9Ycl3_Rsbh-31" value="" style="line;strokeWidth=1;fillColor=none;align=left;verticalAlign=middle;spacingTop=-1;spacingLeft=3;spacingRight=3;rotatable=0;labelPosition=right;points=[];portConstraint=eastwest;strokeColor=inherit;fontStyle=0" vertex="1" parent="lFPa3qKLJU9Ycl3_Rsbh-29">
          <mxGeometry y="120" width="230" height="8" as="geometry" />
        </mxCell>
        <mxCell id="lFPa3qKLJU9Ycl3_Rsbh-32" value="+ &lt;font style=&quot;font-size: 13px;&quot;&gt;Question (header , body , mark , answer)&lt;/font&gt;&lt;div&gt;&lt;br&gt;&lt;/div&gt;" style="text;strokeColor=none;fillColor=none;align=left;verticalAlign=top;spacingLeft=4;spacingRight=4;overflow=hidden;rotatable=0;points=[[0,0.5],[1,0.5]];portConstraint=eastwest;whiteSpace=wrap;html=1;fontStyle=0" vertex="1" parent="lFPa3qKLJU9Ycl3_Rsbh-29">
          <mxGeometry y="128" width="230" height="62" as="geometry" />
        </mxCell>
        <mxCell id="lFPa3qKLJU9Ycl3_Rsbh-33" value="Program" style="swimlane;fontStyle=0;align=center;verticalAlign=top;childLayout=stackLayout;horizontal=1;startSize=30;horizontalStack=0;resizeParent=1;resizeParentMax=0;resizeLast=0;collapsible=1;marginBottom=0;whiteSpace=wrap;html=1;" vertex="1" parent="WIyWlLk6GJQsqaUBKTNV-1">
          <mxGeometry x="-490" y="880" width="230" height="100" as="geometry" />
        </mxCell>
        <mxCell id="lFPa3qKLJU9Ycl3_Rsbh-35" value="" style="line;strokeWidth=1;fillColor=none;align=left;verticalAlign=middle;spacingTop=-1;spacingLeft=3;spacingRight=3;rotatable=0;labelPosition=right;points=[];portConstraint=eastwest;strokeColor=inherit;fontStyle=0" vertex="1" parent="lFPa3qKLJU9Ycl3_Rsbh-33">
          <mxGeometry y="30" width="230" height="8" as="geometry" />
        </mxCell>
        <mxCell id="lFPa3qKLJU9Ycl3_Rsbh-36" value="&lt;div&gt;&lt;br&gt;&lt;/div&gt;" style="text;strokeColor=none;fillColor=none;align=left;verticalAlign=top;spacingLeft=4;spacingRight=4;overflow=hidden;rotatable=0;points=[[0,0.5],[1,0.5]];portConstraint=eastwest;whiteSpace=wrap;html=1;fontStyle=0" vertex="1" parent="lFPa3qKLJU9Ycl3_Rsbh-33">
          <mxGeometry y="38" width="230" height="62" as="geometry" />
        </mxCell>
        <mxCell id="lFPa3qKLJU9Ycl3_Rsbh-41" value="" style="endArrow=block;startArrow=block;endFill=1;startFill=1;html=1;rounded=0;entryX=0;entryY=0.5;entryDx=0;entryDy=0;" edge="1" parent="WIyWlLk6GJQsqaUBKTNV-1" source="lFPa3qKLJU9Ycl3_Rsbh-4" target="lFPa3qKLJU9Ycl3_Rsbh-8">
          <mxGeometry width="160" relative="1" as="geometry">
            <mxPoint x="-40" y="540" as="sourcePoint" />
            <mxPoint x="120" y="540" as="targetPoint" />
          </mxGeometry>
        </mxCell>
        <mxCell id="lFPa3qKLJU9Ycl3_Rsbh-42" value="" style="endArrow=open;endFill=1;endSize=12;html=1;rounded=0;exitX=0.663;exitY=0.005;exitDx=0;exitDy=0;exitPerimeter=0;entryX=0.655;entryY=1.011;entryDx=0;entryDy=0;entryPerimeter=0;" edge="1" parent="WIyWlLk6GJQsqaUBKTNV-1" source="lFPa3qKLJU9Ycl3_Rsbh-29" target="lFPa3qKLJU9Ycl3_Rsbh-12">
          <mxGeometry width="160" relative="1" as="geometry">
            <mxPoint x="-40" y="540" as="sourcePoint" />
            <mxPoint x="120" y="540" as="targetPoint" />
          </mxGeometry>
        </mxCell>
        <mxCell id="lFPa3qKLJU9Ycl3_Rsbh-43" value="Extends" style="endArrow=block;endSize=16;endFill=0;html=1;rounded=0;entryX=0.5;entryY=0;entryDx=0;entryDy=0;" edge="1" parent="WIyWlLk6GJQsqaUBKTNV-1" source="lFPa3qKLJU9Ycl3_Rsbh-22" target="lFPa3qKLJU9Ycl3_Rsbh-29">
          <mxGeometry width="160" relative="1" as="geometry">
            <mxPoint x="-40" y="650" as="sourcePoint" />
            <mxPoint x="120" y="650" as="targetPoint" />
            <Array as="points">
              <mxPoint x="250" y="580" />
            </Array>
          </mxGeometry>
        </mxCell>
        <mxCell id="lFPa3qKLJU9Ycl3_Rsbh-44" value="Extends" style="endArrow=block;endSize=16;endFill=0;html=1;rounded=0;exitX=0.536;exitY=-0.031;exitDx=0;exitDy=0;exitPerimeter=0;entryX=0;entryY=0;entryDx=0;entryDy=0;" edge="1" parent="WIyWlLk6GJQsqaUBKTNV-1" source="lFPa3qKLJU9Ycl3_Rsbh-18" target="lFPa3qKLJU9Ycl3_Rsbh-29">
          <mxGeometry width="160" relative="1" as="geometry">
            <mxPoint x="-40" y="650" as="sourcePoint" />
            <mxPoint x="120" y="650" as="targetPoint" />
            <Array as="points">
              <mxPoint x="-150" y="610" />
            </Array>
          </mxGeometry>
        </mxCell>
        <mxCell id="lFPa3qKLJU9Ycl3_Rsbh-45" value="" style="endArrow=open;endFill=1;endSize=12;html=1;rounded=0;exitX=0.413;exitY=0.98;exitDx=0;exitDy=0;exitPerimeter=0;entryX=0.75;entryY=0;entryDx=0;entryDy=0;" edge="1" parent="WIyWlLk6GJQsqaUBKTNV-1" source="lFPa3qKLJU9Ycl3_Rsbh-8" target="lFPa3qKLJU9Ycl3_Rsbh-29">
          <mxGeometry width="160" relative="1" as="geometry">
            <mxPoint x="-40" y="540" as="sourcePoint" />
            <mxPoint x="120" y="540" as="targetPoint" />
          </mxGeometry>
        </mxCell>
      </root>
    </mxGraphModel>
  </diagram>
</mxfile>
